<svg width="25" height="26" viewBox="0 0 25 26" fill="none" xmlns="http://www.w3.org/2000/svg">
<path d="M23.8915 6.4415C23.5475 6.1705 22.625 5.953 21.9345 5.791L21 5.666V3.407L21.4785 3.3995C21.927 3.627 22.573 4 22.6065 4.5H24.4085C24.375 3.5 23.6155 2.869 22.9395 2.368C22.491 2.0355 22 1.858 21 1.7505V0.5H20V1.712C19 1.808 18.677 2.057 18.2255 2.4635C17.635 2.995 17.372 3.662 17.372 4.465C17.372 5.345 17.6235 5.9915 18.228 6.4055C18.566 6.64 19 6.858 20 7.06V9.5075C19.5 9.419 19.499 9.4415 19.3225 9.232C19.1525 9.029 19.106 8.5 19.048 8.5H17.26C17.26 9.5 17.5305 9.979 18.2075 10.5125C18.6955 10.897 19 10.965 20 11.066V12H21V11.082C22 10.9855 22.8495 10.731 23.338 10.314C23.972 9.7725 24.4905 9.092 24.4905 8.273C24.49 7.474 24.426 6.864 23.8915 6.4415ZM19.509 5.0485C19.218 4.89 19.106 4.65 19.106 4.3295C19.106 3.9805 19.2025 3.7075 19.4975 3.5125C19.653 3.41 19.5 3.3355 20 3.286V5.256C19.5 5.18 19.619 5.111 19.509 5.0485ZM21.6805 9.4585C21.5965 9.4875 21 9.5105 21 9.531V7.4475C22 7.5335 21.923 7.626 22.089 7.7265C22.3495 7.8885 22.4805 8.1195 22.4805 8.415C22.4802 8.92333 22.2135 9.27117 21.6805 9.4585ZM19.26 15.5H18.9835L15.9115 9.9375C15.779 9.697 15.445 9.5 15.17 9.5H5.8495C5.5745 9.5 5.2405 9.697 5.108 9.9375L2.036 15.5H1.76C1.2095 15.5 0.5 15.95 0.5 16.5V21.5C0.5 22.05 1.2095 22.5 1.76 22.5H2.5V24C2.5 24.825 3.435 25.5 4.26 25.5H4.76C5.585 25.5 6 24.825 6 24V22.5H14.5V24C14.5 24.825 15.4345 25.5 16.26 25.5H16.76C17.585 25.5 18 24.825 18 24V22.5H19.26C19.81 22.5 20 22.05 20 21.5V16.5C20 15.95 19.8095 15.5 19.26 15.5ZM3.51 19.5C3.17848 19.5 2.86054 19.3683 2.62612 19.1339C2.3917 18.8995 2.26 18.5815 2.26 18.25C2.26 17.9185 2.3917 17.6005 2.62612 17.3661C2.86054 17.1317 3.17848 17 3.51 17C3.84152 17 4.15946 17.1317 4.39388 17.3661C4.6283 17.6005 4.76 17.9185 4.76 18.25C4.76 18.5815 4.6283 18.8995 4.39388 19.1339C4.15946 19.3683 3.84152 19.5 3.51 19.5ZM4.51 15.5L6.5365 11.4475C6.659 11.201 6.985 11 7.26 11H13.76C14.035 11 14.3605 11.201 14.4835 11.4475L16.51 15.5H4.51ZM17.51 19.5C17.1785 19.5 16.8605 19.3683 16.6261 19.1339C16.3917 18.8995 16.26 18.5815 16.26 18.25C16.26 17.9185 16.3917 17.6005 16.6261 17.3661C16.8605 17.1317 17.1785 17 17.51 17C17.8415 17 18.1595 17.1317 18.3939 17.3661C18.6283 17.6005 18.76 17.9185 18.76 18.25C18.76 18.5815 18.6283 18.8995 18.3939 19.1339C18.1595 19.3683 17.8415 19.5 17.51 19.5Z" fill="#001E5B"/>
</svg>
