<svg width="23" height="29" viewBox="0 0 23 29" fill="none" xmlns="http://www.w3.org/2000/svg">
<path fill-rule="evenodd" clip-rule="evenodd" d="M8.03195 5.66678L0.0106201 4.25345L0.24262 2.93878C0.257906 2.85253 0.29004 2.77013 0.337186 2.69631C0.384331 2.62248 0.445563 2.55867 0.517382 2.50852C0.589202 2.45837 0.6702 2.42287 0.755747 2.40404C0.841295 2.38521 0.929715 2.38342 1.01595 2.39878L19.548 5.66678H19.6653H19.5493L22.0226 6.10278C22.109 6.11791 22.1915 6.14993 22.2655 6.19701C22.3395 6.24409 22.4034 6.3053 22.4537 6.37714C22.504 6.44897 22.5396 6.53002 22.5585 6.61564C22.5775 6.70127 22.5793 6.78978 22.564 6.87611L22.332 8.18811L19.5453 7.69744L18.4786 25.8228C18.4389 26.5013 18.1415 27.139 17.6474 27.6056C17.1533 28.0722 16.4996 28.3326 15.82 28.3334H6.18129C5.50095 28.3336 4.84629 28.0737 4.35129 27.607C3.8563 27.1402 3.55842 26.5019 3.51862 25.8228L2.45329 7.66678H19.3733L8.03195 5.66678ZM6.99995 11.0001L7.66662 23.0001H9.66662L9.13329 11.0001H6.99995ZM13 11.0001L12.3333 23.0001H14.3333L15 11.0001H13ZM9.47195 0.505446L14.7253 1.43078C14.8115 1.44607 14.8939 1.4782 14.9678 1.52534C15.0416 1.57249 15.1054 1.63372 15.1555 1.70554C15.2057 1.77736 15.2412 1.85836 15.26 1.94391C15.2789 2.02945 15.2806 2.11787 15.2653 2.20411L15.0333 3.51611L8.46795 2.35878L8.69995 1.04545C8.71524 0.959194 8.74737 0.876801 8.79452 0.802974C8.84167 0.729148 8.9029 0.665337 8.97472 0.615187C9.04654 0.565037 9.12753 0.529533 9.21308 0.510703C9.29863 0.491873 9.38572 0.490086 9.47195 0.505446Z" fill="#E32211"/>
</svg>
