<svg width="22" height="24" viewBox="0 0 22 24" fill="none" xmlns="http://www.w3.org/2000/svg">
<path d="M7.00004 2.66667C6.64642 2.66667 6.30728 2.80714 6.05723 3.05719C5.80718 3.30724 5.66671 3.64638 5.66671 4C5.66671 4.35362 5.80718 4.69276 6.05723 4.94281C6.30728 5.19286 6.64642 5.33334 7.00004 5.33334C7.35366 5.33334 7.6928 5.19286 7.94285 4.94281C8.1929 4.69276 8.33337 4.35362 8.33337 4C8.33337 3.64638 8.1929 3.30724 7.94285 3.05719C7.6928 2.80714 7.35366 2.66667 7.00004 2.66667ZM3.22671 2.66667C3.50218 1.88596 4.01303 1.20991 4.68884 0.731721C5.36465 0.253529 6.17216 -0.00326538 7.00004 -0.00326538C7.82792 -0.00326538 8.63543 0.253529 9.31124 0.731721C9.98705 1.20991 10.4979 1.88596 10.7734 2.66667H20.3334C20.687 2.66667 21.0261 2.80714 21.2762 3.05719C21.5262 3.30724 21.6667 3.64638 21.6667 4C21.6667 4.35362 21.5262 4.69276 21.2762 4.94281C21.0261 5.19286 20.687 5.33334 20.3334 5.33334H10.7734C10.4979 6.11405 9.98705 6.79009 9.31124 7.26828C8.63543 7.74648 7.82792 8.00327 7.00004 8.00327C6.17216 8.00327 5.36465 7.74648 4.68884 7.26828C4.01303 6.79009 3.50218 6.11405 3.22671 5.33334H1.66671C1.31309 5.33334 0.973947 5.19286 0.723899 4.94281C0.47385 4.69276 0.333374 4.35362 0.333374 4C0.333374 3.64638 0.47385 3.30724 0.723899 3.05719C0.973947 2.80714 1.31309 2.66667 1.66671 2.66667H3.22671ZM15 10.6667C14.6464 10.6667 14.3073 10.8071 14.0572 11.0572C13.8072 11.3072 13.6667 11.6464 13.6667 12C13.6667 12.3536 13.8072 12.6928 14.0572 12.9428C14.3073 13.1929 14.6464 13.3333 15 13.3333C15.3537 13.3333 15.6928 13.1929 15.9428 12.9428C16.1929 12.6928 16.3334 12.3536 16.3334 12C16.3334 11.6464 16.1929 11.3072 15.9428 11.0572C15.6928 10.8071 15.3537 10.6667 15 10.6667ZM11.2267 10.6667C11.5022 9.88596 12.013 9.20991 12.6888 8.73172C13.3647 8.25353 14.1722 7.99673 15 7.99673C15.8279 7.99673 16.6354 8.25353 17.3112 8.73172C17.9871 9.20991 18.4979 9.88596 18.7734 10.6667H20.3334C20.687 10.6667 21.0261 10.8071 21.2762 11.0572C21.5262 11.3072 21.6667 11.6464 21.6667 12C21.6667 12.3536 21.5262 12.6928 21.2762 12.9428C21.0261 13.1929 20.687 13.3333 20.3334 13.3333H18.7734C18.4979 14.114 17.9871 14.7901 17.3112 15.2683C16.6354 15.7465 15.8279 16.0033 15 16.0033C14.1722 16.0033 13.3647 15.7465 12.6888 15.2683C12.013 14.7901 11.5022 14.114 11.2267 13.3333H1.66671C1.31309 13.3333 0.973947 13.1929 0.723899 12.9428C0.47385 12.6928 0.333374 12.3536 0.333374 12C0.333374 11.6464 0.47385 11.3072 0.723899 11.0572C0.973947 10.8071 1.31309 10.6667 1.66671 10.6667H11.2267ZM7.00004 18.6667C6.64642 18.6667 6.30728 18.8071 6.05723 19.0572C5.80718 19.3072 5.66671 19.6464 5.66671 20C5.66671 20.3536 5.80718 20.6928 6.05723 20.9428C6.30728 21.1929 6.64642 21.3333 7.00004 21.3333C7.35366 21.3333 7.6928 21.1929 7.94285 20.9428C8.1929 20.6928 8.33337 20.3536 8.33337 20C8.33337 19.6464 8.1929 19.3072 7.94285 19.0572C7.6928 18.8071 7.35366 18.6667 7.00004 18.6667ZM3.22671 18.6667C3.50218 17.886 4.01303 17.2099 4.68884 16.7317C5.36465 16.2535 6.17216 15.9967 7.00004 15.9967C7.82792 15.9967 8.63543 16.2535 9.31124 16.7317C9.98705 17.2099 10.4979 17.886 10.7734 18.6667H20.3334C20.687 18.6667 21.0261 18.8071 21.2762 19.0572C21.5262 19.3072 21.6667 19.6464 21.6667 20C21.6667 20.3536 21.5262 20.6928 21.2762 20.9428C21.0261 21.1929 20.687 21.3333 20.3334 21.3333H10.7734C10.4979 22.114 9.98705 22.7901 9.31124 23.2683C8.63543 23.7465 7.82792 24.0033 7.00004 24.0033C6.17216 24.0033 5.36465 23.7465 4.68884 23.2683C4.01303 22.7901 3.50218 22.114 3.22671 21.3333H1.66671C1.31309 21.3333 0.973947 21.1929 0.723899 20.9428C0.47385 20.6928 0.333374 20.3536 0.333374 20C0.333374 19.6464 0.47385 19.3072 0.723899 19.0572C0.973947 18.8071 1.31309 18.6667 1.66671 18.6667H3.22671Z" fill="#001E5B"/>
</svg>
