<svg xmlns="http://www.w3.org/2000/svg" viewBox="0 0 64 64" fill="currentColor" width="64" height="64">
  <path d="m56.1611328 19.0283203v-8.1855469c0-.5522461-.4477539-1-1-1h-25.3999023l-1.6342773-4.1484375c-.1503907-.3818359-.5195313-.6333007-.9301759-.6333007h-24.1967773c-.5522461 0-1 .4477539-1 1v12.9672852.0004883 33.6884766c0 .5522461.4477539 1 1 1h30.5661011l-.9796753 7.1469727c-.0424805.3095703.0625.6210938.2832031.8422852.1889649.1894529.4438477.2934568.7075195.2934568.0449219 0 .0898438-.0029297.1347656-.0092773l8.0039062-1.0883789c.2167969-.0292969.4174805-.1289062.5722656-.2836914l6.9015503-6.9013672h5.9714966c.5522461 0 1-.4477539 1-1v-5.9713135l4.3925781-4.3924561c1.5107422-1.5107422 1.5107422-3.9682617 0-5.4790039l-2.8510742-2.8510742c-.4317627-.4321289-.9644165-.7382812-1.5415039-.9244995v-14.0701294-.0004883zm-2 32.6889649h-2.9711914l2.9711914-2.9711914zm-27.6450195-44.65625 1.6342773 4.1484375c.1503906.3818359.5195312.6333008.9301758.6333008h25.0805664v6.1855469h-50.1611328v-10.9672852zm-22.5161133 12.9672851h50.1611328v12.9506836c-.1845703.0385742-.3654785.0907593-.541687.1552124-.0292358.0107422-.0559692.0265503-.0848999.0380249-.1999512.0786743-.3909912.1763916-.5753174.2874146-.0559692.0337524-.1103516.0678711-.1646118.1044922-.2020264.1361084-.3963013.2846069-.5709839.4592896l-17.6850586 17.6938476h-30.5385742zm55.1396484 18.2602539c.730957.730957.730957 1.9199219 0 2.6508789l-18.0273437 18.0268555-6.3657227.8652344.8725586-6.3662109.039978-.039978c.0004272-.0004272.0010986-.0006104.0015259-.0010376l17.9770508-17.9868165c.3842773-.3833008.9057617-.5717773 1.4560547-.5366211.4550781.0307617.8793945.2216797 1.1948242.5366211z"/>
</svg>