<svg fill="none" height="64" viewBox="0 0 64 64" width="64" xmlns="http://www.w3.org/2000/svg"><g fill="#000"><path d="m29.1224 7.101-23.69493 24.2998c-.77365.7884-2.03993.8003-2.8283.0267-.78837-.7737-.8003-2.04-.02664-2.8283l23.75737-24.20925c3.1271-3.18661 8.2131-3.1866 11.3402.00001l23.7574 24.20924c.7736.7883.7617 2.0546-.0267 2.8283-.7883.7736-2.0546.7617-2.8283-.0267l-23.6949-24.2998c-1.5727-1.62883-4.1825-1.62883-5.7552 0z"/><path d="m32 9.87938 24 24.85712v19.2635c0 4.4183-3.5817 8-8 8h-8v-18c0-4.4183-3.5817-8-8-8s-8 3.5817-8 8v18h-8c-4.4183 0-8-3.5817-8-8v-19.2635z"/></g></svg>