<svg width="20" height="9" viewBox="0 0 20 9" fill="none" xmlns="http://www.w3.org/2000/svg">
<path d="M4.44 5.8C4.44 5.97333 4.43766 6.15034 4.433 6.331C4.42833 6.51234 4.426 6.694 4.426 6.876C4.426 7.276 4.101 7.602 3.7 7.602H3.214C3.02162 7.60174 2.83722 7.52513 2.70128 7.38901C2.56535 7.25289 2.489 7.06838 2.489 6.876C2.489 6.694 2.48666 6.51234 2.482 6.331C2.47786 6.15403 2.47586 5.97702 2.476 5.8V4.296C2.476 4.124 2.48433 3.90833 2.501 3.649C2.523 3.385 2.54266 3.117 2.56 2.845C2.58133 2.573 2.59 2.33533 2.586 2.132L2.534 0.201002C2.6988 0.168884 2.86546 0.147173 3.033 0.136001C3.33276 0.119113 3.63323 0.119113 3.933 0.136001C4.229 0.152001 4.439 0.415002 4.439 0.711002L4.44 5.8ZM1.186 6.785C1.281 6.785 2.076 6.781 2.266 6.785C2.171 6.785 2.456 6.789 2.266 6.785H4.426C4.526 6.785 4.763 6.789 4.966 6.785C4.871 6.785 5.173 6.781 4.966 6.785H5.251C5.717 6.785 6.105 7.11 6.105 7.575C6.105 8.063 5.759 8.405 5.272 8.405H1.018C0.900563 8.40737 0.786185 8.36748 0.695696 8.29259C0.605207 8.21771 0.54463 8.11281 0.524997 7.997C0.499786 7.78532 0.493428 7.57181 0.505997 7.359C0.528997 7.016 0.841997 6.785 1.186 6.785ZM0.297997 3.532C0.0219973 3.152 0.261997 2.669 0.639997 2.39C0.999997 2.12334 1.30933 1.85367 1.568 1.581C1.974 1.153 2.266 0.469002 2.534 0.201002C2.627 0.236002 2.737 0.428002 2.841 0.665002C3.14 1.345 3.122 2.159 2.631 2.715C2.29868 3.08725 1.91035 3.40541 1.48 3.658C1.088 3.894 0.574997 3.896 0.297997 3.532ZM7.845 2.625C7.381 2.454 7.271 1.895 7.514 1.465C7.5868 1.33366 7.66937 1.20798 7.761 1.089C8.02309 0.744343 8.36259 0.466183 8.75207 0.277004C9.14154 0.0878247 9.57006 -0.00706599 10.003 1.53802e-06C10.5563 1.53802e-06 11.0383 0.108002 11.449 0.324002C11.859 0.536002 12.1763 0.836002 12.401 1.224C12.631 1.60933 12.7457 2.06334 12.745 2.586C12.745 2.94867 12.6737 3.277 12.531 3.571C12.3883 3.865 12.2003 4.137 11.967 4.387C11.7337 4.637 11.4767 4.88133 11.196 5.12L10.269 5.845L9.783 6.254C9.60966 6.40133 9.46066 6.54367 9.336 6.681C9.211 6.82 9.291 6.686 9.286 6.785L9.179 7.589C9.14894 7.81487 9.03786 8.02213 8.86642 8.17224C8.69498 8.32234 8.47486 8.40506 8.247 8.405C8.11113 8.40723 7.9766 8.37796 7.85394 8.31949C7.73128 8.26102 7.62382 8.17495 7.54 8.068C7.46862 7.97475 7.3996 7.87972 7.333 7.783C7.19806 7.58413 7.12595 7.34933 7.126 7.109C7.126 6.87167 7.193 6.63167 7.327 6.389C7.465 6.14767 7.64633 5.906 7.871 5.664C8.101 5.418 8.34766 5.176 8.611 4.938L10.016 3.726C10.206 3.562 10.366 3.38267 10.496 3.188C10.626 2.994 10.6907 2.774 10.69 2.528C10.6968 2.29785 10.6132 2.07419 10.457 1.905C10.3017 1.73167 10.0817 1.64533 9.797 1.646C9.65161 1.64193 9.50736 1.67276 9.37635 1.73592C9.24533 1.79908 9.13137 1.89272 9.044 2.009L9.01 2.053C8.717 2.437 8.302 2.783 7.845 2.625ZM11.725 6.791C12.465 6.788 13.127 7.456 12.667 8.036C12.4737 8.28267 12.1473 8.406 11.688 8.406H8.436C8.28894 8.40613 8.145 8.36359 8.02164 8.28353C7.89828 8.20348 7.80079 8.08936 7.741 7.955C7.559 7.551 7.761 7.078 8.195 6.987C8.321 6.961 8.453 6.937 8.591 6.915C9.503 6.76 10.436 6.783 11.361 6.79L11.688 6.792H11.726L11.725 6.791ZM17.933 5.787C17.933 5.44567 17.8207 5.18434 17.596 5.003C17.3695 4.81351 17.0811 4.71417 16.786 4.724C16.6653 4.724 16.5463 4.73733 16.429 4.764C16.207 4.813 15.961 4.815 15.801 4.653C15.7299 4.57815 15.6647 4.49791 15.606 4.413C15.464 4.201 15.34 4.123 15.34 3.797C16.012 3.648 16.116 3.636 16.41 3.571C16.704 3.501 16.883 3.454 17.388 3.454C17.8847 3.454 18.3297 3.547 18.723 3.733C19.1163 3.91367 19.4277 4.18367 19.657 4.543C19.8857 4.897 20 5.33533 20 5.858C20.0073 6.26136 19.9207 6.6609 19.747 7.025C19.5861 7.35665 19.3539 7.64862 19.067 7.88C18.7777 8.11333 18.445 8.29067 18.069 8.412C17.693 8.532 17.2953 8.59234 16.876 8.593C16.3268 8.60135 15.7805 8.51126 15.263 8.327C15.0857 8.25925 14.9124 8.18146 14.744 8.094C14.317 7.867 14.142 7.345 14.407 6.941C14.672 6.547 15.211 6.566 15.642 6.766L15.697 6.791C15.9823 6.91233 16.289 6.973 16.617 6.973C16.8857 6.973 17.117 6.92533 17.311 6.83C17.509 6.73067 17.6623 6.59267 17.771 6.416C17.879 6.238 17.933 6.02833 17.933 5.787ZM18.27 3.162C18.0854 3.34866 17.8785 3.51188 17.654 3.648C17.4361 3.78476 17.2089 3.90605 16.974 4.011C16.674 4.141 16.809 3.664 16.484 3.693L15.34 3.797C15.53 3.454 16.54 2.624 16.54 2.624C16.622 2.542 16.717 2.44933 16.825 2.346C17.0097 2.17562 17.1977 2.00892 17.389 1.846C17.3985 1.83917 17.4053 1.82923 17.4082 1.8179C17.4111 1.80657 17.41 1.79458 17.405 1.784C17.3994 1.7725 17.3902 1.7631 17.3789 1.75716C17.3676 1.75122 17.3546 1.74907 17.342 1.751C17.1929 1.77128 17.0425 1.7803 16.892 1.778C16.862 1.77867 16.832 1.78033 16.802 1.783C16.688 1.792 16.588 1.763 16.45 1.778C16.3 1.791 16.176 1.778 16.016 1.778H15.113C14.857 1.778 14.445 1.714 14.42 1.458C14.4089 1.35032 14.4023 1.24223 14.4 1.134C14.4 1.00867 14.411 0.862002 14.433 0.694002C14.473 0.382002 14.777 0.201002 15.09 0.201002H18.479C18.957 0.201002 19.434 0.449001 19.572 0.907001C19.628 1.08833 19.6563 1.24834 19.657 1.387C19.657 1.67233 19.527 1.951 19.267 2.223L18.27 3.162Z" fill="#08C2C9"/>
</svg>
