<svg width="24" height="20" viewBox="0 0 24 20" fill="none" xmlns="http://www.w3.org/2000/svg">
<g clip-path="url(#clip0_1194_4863)">
<path d="M23.0999 0.5H15.8999C15.4055 0.5 14.7131 0.783812 14.3639 1.12937L5.43715 9.96319C5.35351 10.0459 5.28717 10.1441 5.2419 10.2522C5.19664 10.3603 5.17334 10.4761 5.17334 10.5932C5.17334 10.7102 5.19664 10.826 5.2419 10.9341C5.28717 11.0422 5.35351 11.1404 5.43715 11.2231L13.1639 18.8694C13.2475 18.9522 13.3468 19.0179 13.456 19.0626C13.5652 19.1074 13.6823 19.1305 13.8005 19.1305C13.9188 19.1305 14.0359 19.1074 14.1451 19.0626C14.2543 19.0179 14.3536 18.9522 14.4371 18.8694L23.3639 10.0356C23.7143 9.68887 23.9999 9.00488 23.9999 8.51562V1.39062C23.9999 1.15442 23.9051 0.927883 23.7363 0.760858C23.5676 0.593833 23.3386 0.5 23.0999 0.5ZM18.5999 7.625C18.3635 7.62492 18.1294 7.57876 17.9109 7.48914C17.6925 7.39952 17.4941 7.2682 17.3269 7.10269C17.1598 6.93718 17.0272 6.7407 16.9368 6.52449C16.8464 6.30828 16.7999 6.07656 16.7999 5.84256C16.8 5.60857 16.8467 5.37688 16.9372 5.16073C17.0278 4.94457 17.1605 4.74819 17.3278 4.58278C17.495 4.41738 17.6936 4.28619 17.912 4.19672C18.1305 4.10725 18.3647 4.06123 18.6011 4.06131C19.0787 4.06147 19.5366 4.24935 19.8742 4.58362C20.2118 4.91789 20.4013 5.37118 20.4011 5.84375C20.401 6.31632 20.2111 6.76948 19.8733 7.10353C19.5356 7.43758 19.0775 7.62516 18.5999 7.625Z" fill="#001E5B"/>
<path d="M2.40002 10.5938L12.6 0.5H11.1C10.6056 0.5 9.91322 0.783812 9.56402 1.12937L0.637221 9.96319C0.553587 10.0459 0.487242 10.1441 0.441977 10.2522C0.396711 10.3603 0.373413 10.4761 0.373413 10.5932C0.373413 10.7102 0.396711 10.826 0.441977 10.9341C0.487242 11.0422 0.553587 11.1404 0.637221 11.2231L8.36402 18.8694C8.4476 18.9522 8.54684 19.0179 8.65607 19.0626C8.7653 19.1074 8.88238 19.1305 9.00062 19.1305C9.11886 19.1305 9.23594 19.1074 9.34517 19.0626C9.4544 19.0179 9.55364 18.9522 9.63722 18.8694L10.2012 18.3113L2.40002 10.5938Z" fill="#001E5B"/>
</g>
<defs>
<clipPath id="clip0_1194_4863">
<rect width="24" height="19" fill="white" transform="translate(0 0.5)"/>
</clipPath>
</defs>
</svg>
