<svg width="20" height="20" viewBox="0 0 20 20" fill="none" xmlns="http://www.w3.org/2000/svg">
<path fill-rule="evenodd" clip-rule="evenodd" d="M17.8001 8.18003C17.4901 5.00003 15.6101 1.52588e-05 9.80009 1.52588e-05C3.99007 1.52588e-05 2.11005 5.00003 1.80007 8.18003C0.71257 8.59276 -0.00475813 9.63686 6.99991e-05 10.8V12.2C6.99991e-05 13.7464 1.2537 15 2.80005 15C4.34646 15 5.60009 13.7464 5.60009 12.2V10.8C5.59502 9.66194 4.90409 8.63931 3.85005 8.21003C4.05007 6.37 5.03009 2.00003 9.80009 2.00003C14.5701 2.00003 15.5401 6.37 15.7401 8.21003C14.6882 8.64025 14.0007 9.66358 14.0001 10.8V12.2C14.0022 12.7269 14.1524 13.2425 14.4336 13.6881C14.7147 14.1337 15.1155 14.4913 15.5901 14.72C15.1701 15.51 14.1001 16.58 11.4701 16.9C10.9444 16.1017 9.92721 15.787 9.04249 16.1489C8.15782 16.5108 7.65284 17.4482 7.83734 18.386C8.02184 19.3239 8.84421 20 9.80009 20C10.1705 19.998 10.533 19.8931 10.8473 19.6971C11.1616 19.5011 11.4152 19.2217 11.5801 18.89C15.8701 18.4 17.2401 16.19 17.6701 14.89C18.8334 14.5132 19.6158 13.4228 19.6001 12.2V10.8C19.6049 9.63686 18.8876 8.59276 17.8001 8.18003ZM3.60007 12.2C3.60007 12.6418 3.2419 13 2.80005 13C2.35821 13 2.00009 12.6419 2.00009 12.2V10.8C1.99928 10.6944 2.01937 10.5898 2.05921 10.492C2.09906 10.3942 2.15785 10.3053 2.23222 10.2304C2.30659 10.1554 2.39505 10.0959 2.49251 10.0554C2.58997 10.0148 2.6945 9.99388 2.80008 9.99388C2.90565 9.99388 3.01018 10.0148 3.10764 10.0554C3.20511 10.0959 3.29357 10.1554 3.36794 10.2304C3.4423 10.3053 3.5011 10.3942 3.54094 10.492C3.58078 10.5898 3.60088 10.6944 3.60007 10.8V12.2ZM16.0001 10.8C16.0001 10.3582 16.3582 10 16.8001 10C17.2419 10 17.6001 10.3582 17.6001 10.8V12.2C17.6001 12.6418 17.2419 13 16.8001 13C16.3582 13 16.0001 12.6419 16.0001 12.2V10.8Z" fill="#08C2C9"/>
</svg>
