<svg width="12" height="14" viewBox="0 0 12 14" fill="none" xmlns="http://www.w3.org/2000/svg">
<path d="M6.00002 0.648315C3.06669 0.648315 0.666687 3.04832 0.666687 5.98165C0.666687 9.58165 5.33335 13.6483 5.53335 13.8483C5.66669 13.915 5.86669 13.9816 6.00002 13.9816C6.13335 13.9816 6.33335 13.915 6.46669 13.8483C6.66669 13.6483 11.3334 9.58165 11.3334 5.98165C11.3334 3.04832 8.93335 0.648315 6.00002 0.648315ZM6.00002 12.4483C4.60002 11.115 2.00002 8.24832 2.00002 5.98165C2.00002 3.78165 3.80002 1.98165 6.00002 1.98165C8.20002 1.98165 10 3.78165 10 5.98165C10 8.18165 7.40002 11.115 6.00002 12.4483ZM6.00002 3.31498C4.53335 3.31498 3.33335 4.51498 3.33335 5.98165C3.33335 7.44832 4.53335 8.64832 6.00002 8.64832C7.46669 8.64832 8.66669 7.44832 8.66669 5.98165C8.66669 4.51498 7.46669 3.31498 6.00002 3.31498ZM6.00002 7.31498C5.26669 7.31498 4.66669 6.71498 4.66669 5.98165C4.66669 5.24832 5.26669 4.64832 6.00002 4.64832C6.73335 4.64832 7.33335 5.24832 7.33335 5.98165C7.33335 6.71498 6.73335 7.31498 6.00002 7.31498Z" fill="#38507F"/>
</svg>
